<?xml version="1.0" encoding="UTF-8" standalone="no"?>
<!DOCTYPE svg PUBLIC "-//W3C//DTD SVG 1.1//EN"
 "http://www.w3.org/Graphics/SVG/1.1/DTD/svg11.dtd">
<!-- Generated by graphviz version 2.26.3 (20100126.1600)
 -->
<!-- Title: BeerStyles Pages: 1 -->
<svg width="2418pt" height="860pt"
 viewBox="0.00 0.00 2418.00 860.00" xmlns="http://www.w3.org/2000/svg" xmlns:xlink="http://www.w3.org/1999/xlink">
<g id="graph1" class="graph" transform="scale(1 1) rotate(0) translate(4 856)">
<title>BeerStyles</title>
<polygon fill="white" stroke="white" points="-4,5 -4,-856 2415,-856 2415,5 -4,5"/>
<!-- Beer Styles -->
<g id="node1" class="node"><title>Beer Styles</title>
<ellipse fill="none" stroke="black" cx="1552" cy="-833" rx="67.1751" ry="18.3848"/>
<text text-anchor="middle" x="1552" y="-829.4" font-family="Times Roman,serif" font-size="14.00">Beer Styles</text>
</g>
<!-- Top&#45;fermenting -->
<g id="node3" class="node"><title>Top&#45;fermenting</title>
<ellipse fill="none" stroke="black" cx="1331" cy="-759" rx="85.0596" ry="18.3848"/>
<text text-anchor="middle" x="1331" y="-755.4" font-family="Times Roman,serif" font-size="14.00">Top&#45;fermenting</text>
</g>
<!-- Beer Styles&#45;&gt;Top&#45;fermenting -->
<g id="edge2" class="edge"><title>Beer Styles&#45;&gt;Top&#45;fermenting</title>
<path fill="none" stroke="black" d="M1509.13,-818.644C1474.44,-807.031 1425.32,-790.582 1387.44,-777.898"/>
<polygon fill="black" stroke="black" points="1388.17,-774.45 1377.57,-774.594 1385.94,-781.088 1388.17,-774.45"/>
</g>
<!-- Bottom&#45;fermenting -->
<g id="node5" class="node"><title>Bottom&#45;fermenting</title>
<ellipse fill="none" stroke="black" cx="1773" cy="-759" rx="104.86" ry="18.3848"/>
<text text-anchor="middle" x="1773" y="-755.4" font-family="Times Roman,serif" font-size="14.00">Bottom&#45;fermenting</text>
</g>
<!-- Beer Styles&#45;&gt;Bottom&#45;fermenting -->
<g id="edge4" class="edge"><title>Beer Styles&#45;&gt;Bottom&#45;fermenting</title>
<path fill="none" stroke="black" d="M1594.87,-818.644C1628.86,-807.262 1676.73,-791.235 1714.28,-778.661"/>
<polygon fill="black" stroke="black" points="1715.72,-781.872 1724.09,-775.378 1713.49,-775.235 1715.72,-781.872"/>
</g>
<!-- Wheat beers -->
<g id="node7" class="node"><title>Wheat beers</title>
<ellipse fill="none" stroke="black" cx="1110" cy="-685" rx="74.2462" ry="18.3848"/>
<text text-anchor="middle" x="1110" y="-681.4" font-family="Times Roman,serif" font-size="14.00">Wheat beers</text>
</g>
<!-- Top&#45;fermenting&#45;&gt;Wheat beers -->
<g id="edge6" class="edge"><title>Top&#45;fermenting&#45;&gt;Wheat beers</title>
<path fill="none" stroke="black" d="M1284.67,-743.487C1249.47,-731.699 1200.96,-715.458 1164,-703.081"/>
<polygon fill="black" stroke="black" points="1164.98,-699.718 1154.38,-699.861 1162.75,-706.355 1164.98,-699.718"/>
</g>
<!-- Sweet stout -->
<g id="node9" class="node"><title>Sweet stout</title>
<ellipse fill="none" stroke="black" cx="1331" cy="-685" rx="70.9184" ry="18.3848"/>
<text text-anchor="middle" x="1331" y="-681.4" font-family="Times Roman,serif" font-size="14.00">Sweet stout</text>
</g>
<!-- Top&#45;fermenting&#45;&gt;Sweet stout -->
<g id="edge8" class="edge"><title>Top&#45;fermenting&#45;&gt;Sweet stout</title>
<path fill="none" stroke="black" d="M1331,-740.327C1331,-732.264 1331,-722.648 1331,-713.711"/>
<polygon fill="black" stroke="black" points="1334.5,-713.667 1331,-703.667 1327.5,-713.667 1334.5,-713.667"/>
</g>
<!-- Porter -->
<g id="node17" class="node"><title>Porter</title>
<ellipse fill="none" stroke="black" cx="1461" cy="-685" rx="41.2167" ry="18.3848"/>
<text text-anchor="middle" x="1461" y="-681.4" font-family="Times Roman,serif" font-size="14.00">Porter</text>
</g>
<!-- Top&#45;fermenting&#45;&gt;Porter -->
<g id="edge16" class="edge"><title>Top&#45;fermenting&#45;&gt;Porter</title>
<path fill="none" stroke="black" d="M1361.48,-741.65C1381,-730.537 1406.38,-716.091 1426.62,-704.569"/>
<polygon fill="black" stroke="black" points="1428.56,-707.492 1435.52,-699.503 1425.1,-701.408 1428.56,-707.492"/>
</g>
<!-- Ale -->
<g id="node19" class="node"><title>Ale</title>
<ellipse fill="none" stroke="black" cx="596" cy="-685" rx="27" ry="18.3848"/>
<text text-anchor="middle" x="596" y="-681.4" font-family="Times Roman,serif" font-size="14.00">Ale</text>
</g>
<!-- Top&#45;fermenting&#45;&gt;Ale -->
<g id="edge18" class="edge"><title>Top&#45;fermenting&#45;&gt;Ale</title>
<path fill="none" stroke="black" d="M1253.73,-751.221C1097.01,-735.441 746.93,-700.196 632.769,-688.702"/>
<polygon fill="black" stroke="black" points="633.08,-685.216 622.78,-687.696 632.379,-692.18 633.08,-685.216"/>
</g>
<!-- Lager -->
<g id="node94" class="node"><title>Lager</title>
<ellipse fill="none" stroke="black" cx="2104" cy="-685" rx="39.0967" ry="18.3848"/>
<text text-anchor="middle" x="2104" y="-681.4" font-family="Times Roman,serif" font-size="14.00">Lager</text>
</g>
<!-- Bottom&#45;fermenting&#45;&gt;Lager -->
<g id="edge94" class="edge"><title>Bottom&#45;fermenting&#45;&gt;Lager</title>
<path fill="none" stroke="black" d="M1838,-744.468C1903.18,-729.896 2001.84,-707.84 2058.9,-695.084"/>
<polygon fill="black" stroke="black" points="2059.71,-698.488 2068.71,-692.89 2058.18,-691.657 2059.71,-698.488"/>
</g>
<!-- Vienna type -->
<g id="node96" class="node"><title>Vienna type</title>
<ellipse fill="none" stroke="black" cx="1683" cy="-685" rx="70.2092" ry="18.3848"/>
<text text-anchor="middle" x="1683" y="-681.4" font-family="Times Roman,serif" font-size="14.00">Vienna type</text>
</g>
<!-- Bottom&#45;fermenting&#45;&gt;Vienna type -->
<g id="edge96" class="edge"><title>Bottom&#45;fermenting&#45;&gt;Vienna type</title>
<path fill="none" stroke="black" d="M1750.75,-740.708C1739.22,-731.228 1724.99,-719.526 1712.55,-709.297"/>
<polygon fill="black" stroke="black" points="1714.63,-706.474 1704.68,-702.826 1710.18,-711.881 1714.63,-706.474"/>
</g>
<!-- Munich pale -->
<g id="node98" class="node"><title>Munich pale</title>
<ellipse fill="none" stroke="black" cx="1864" cy="-685" rx="70.0036" ry="18.3848"/>
<text text-anchor="middle" x="1864" y="-681.4" font-family="Times Roman,serif" font-size="14.00">Munich pale</text>
</g>
<!-- Bottom&#45;fermenting&#45;&gt;Munich pale -->
<g id="edge98" class="edge"><title>Bottom&#45;fermenting&#45;&gt;Munich pale</title>
<path fill="none" stroke="black" d="M1795.49,-740.708C1807.15,-731.228 1821.54,-719.526 1834.12,-709.297"/>
<polygon fill="black" stroke="black" points="1836.53,-711.851 1842.08,-702.826 1832.11,-706.42 1836.53,-711.851"/>
</g>
<!-- pure yeasts -->
<g id="node64" class="node"><title>pure yeasts</title>
<ellipse fill="none" stroke="black" cx="1279" cy="-611" rx="68.0887" ry="18.3848"/>
<text text-anchor="middle" x="1279" y="-607.4" font-family="Times Roman,serif" font-size="14.00">pure yeasts</text>
</g>
<!-- Wheat beers&#45;&gt;pure yeasts -->
<g id="edge64" class="edge"><title>Wheat beers&#45;&gt;pure yeasts</title>
<path fill="none" stroke="black" d="M1147.09,-668.76C1172.55,-657.609 1206.52,-642.739 1233.6,-630.879"/>
<polygon fill="black" stroke="black" points="1235.11,-634.038 1242.87,-626.821 1232.3,-627.626 1235.11,-634.038"/>
</g>
<!-- lactic fermentation -->
<g id="node66" class="node"><title>lactic fermentation</title>
<ellipse fill="none" stroke="black" cx="792" cy="-611" rx="103.238" ry="18.3848"/>
<text text-anchor="middle" x="792" y="-607.4" font-family="Times Roman,serif" font-size="14.00">lactic fermentation</text>
</g>
<!-- Wheat beers&#45;&gt;lactic fermentation -->
<g id="edge66" class="edge"><title>Wheat beers&#45;&gt;lactic fermentation</title>
<path fill="none" stroke="black" d="M1055.7,-672.363C1003.12,-660.13 923.065,-641.499 864.952,-627.976"/>
<polygon fill="black" stroke="black" points="865.629,-624.54 855.096,-625.683 864.043,-631.358 865.629,-624.54"/>
</g>
<!-- spontaneous fermentation -->
<g id="node68" class="node"><title>spontaneous fermentation</title>
<ellipse fill="none" stroke="black" cx="1053" cy="-611" rx="140.213" ry="18.3848"/>
<text text-anchor="middle" x="1053" y="-607.4" font-family="Times Roman,serif" font-size="14.00">spontaneous fermentation</text>
</g>
<!-- Wheat beers&#45;&gt;spontaneous fermentation -->
<g id="edge68" class="edge"><title>Wheat beers&#45;&gt;spontaneous fermentation</title>
<path fill="none" stroke="black" d="M1095.91,-666.708C1089.18,-657.969 1080.99,-647.34 1073.58,-637.719"/>
<polygon fill="black" stroke="black" points="1076.2,-635.382 1067.32,-629.596 1070.65,-639.654 1076.2,-635.382"/>
</g>
<!-- Oatmeal stout -->
<g id="node11" class="node"><title>Oatmeal stout</title>
<ellipse fill="none" stroke="black" cx="1447" cy="-611" rx="82.0244" ry="18.3848"/>
<text text-anchor="middle" x="1447" y="-607.4" font-family="Times Roman,serif" font-size="14.00">Oatmeal stout</text>
</g>
<!-- Sweet stout&#45;&gt;Oatmeal stout -->
<g id="edge10" class="edge"><title>Sweet stout&#45;&gt;Oatmeal stout</title>
<path fill="none" stroke="black" d="M1357.9,-667.837C1373.63,-657.802 1393.7,-645.003 1410.8,-634.093"/>
<polygon fill="black" stroke="black" points="1412.89,-636.913 1419.44,-628.584 1409.12,-631.011 1412.89,-636.913"/>
</g>
<!-- Dry stout -->
<g id="node13" class="node"><title>Dry stout</title>
<ellipse fill="none" stroke="black" cx="1534" cy="-537" rx="58.1882" ry="18.3848"/>
<text text-anchor="middle" x="1534" y="-533.4" font-family="Times Roman,serif" font-size="14.00">Dry stout</text>
</g>
<!-- Oatmeal stout&#45;&gt;Dry stout -->
<g id="edge12" class="edge"><title>Oatmeal stout&#45;&gt;Dry stout</title>
<path fill="none" stroke="black" d="M1468.06,-593.087C1479.36,-583.472 1493.45,-571.491 1505.7,-561.073"/>
<polygon fill="black" stroke="black" points="1508.08,-563.638 1513.43,-554.493 1503.55,-558.306 1508.08,-563.638"/>
</g>
<!-- Imperial stout -->
<g id="node15" class="node"><title>Imperial stout</title>
<ellipse fill="none" stroke="black" cx="1550" cy="-463" rx="79.9031" ry="18.3848"/>
<text text-anchor="middle" x="1550" y="-459.4" font-family="Times Roman,serif" font-size="14.00">Imperial stout</text>
</g>
<!-- Dry stout&#45;&gt;Imperial stout -->
<g id="edge14" class="edge"><title>Dry stout&#45;&gt;Imperial stout</title>
<path fill="none" stroke="black" d="M1538.04,-518.327C1539.78,-510.264 1541.86,-500.648 1543.79,-491.711"/>
<polygon fill="black" stroke="black" points="1547.27,-492.181 1545.96,-481.667 1540.43,-490.702 1547.27,-492.181"/>
</g>
<!-- Pale Mild -->
<g id="node21" class="node"><title>Pale Mild</title>
<ellipse fill="none" stroke="black" cx="449" cy="-611" rx="53.9477" ry="18.3848"/>
<text text-anchor="middle" x="449" y="-607.4" font-family="Times Roman,serif" font-size="14.00">Pale Mild</text>
</g>
<!-- Ale&#45;&gt;Pale Mild -->
<g id="edge20" class="edge"><title>Ale&#45;&gt;Pale Mild</title>
<path fill="none" stroke="black" d="M573.993,-673.921C551.469,-662.583 515.982,-644.719 488.565,-630.917"/>
<polygon fill="black" stroke="black" points="490.113,-627.778 479.607,-626.408 486.965,-634.03 490.113,-627.778"/>
</g>
<!-- American Ale -->
<g id="node60" class="node"><title>American Ale</title>
<ellipse fill="none" stroke="black" cx="596" cy="-611" rx="75.1594" ry="18.3848"/>
<text text-anchor="middle" x="596" y="-607.4" font-family="Times Roman,serif" font-size="14.00">American Ale</text>
</g>
<!-- Ale&#45;&gt;American Ale -->
<g id="edge60" class="edge"><title>Ale&#45;&gt;American Ale</title>
<path fill="none" stroke="black" d="M596,-666.327C596,-658.264 596,-648.648 596,-639.711"/>
<polygon fill="black" stroke="black" points="599.5,-639.667 596,-629.667 592.5,-639.667 599.5,-639.667"/>
</g>
<!-- Dark Mild -->
<g id="node23" class="node"><title>Dark Mild</title>
<ellipse fill="none" stroke="black" cx="449" cy="-537" rx="58.1882" ry="18.3848"/>
<text text-anchor="middle" x="449" y="-533.4" font-family="Times Roman,serif" font-size="14.00">Dark Mild</text>
</g>
<!-- Pale Mild&#45;&gt;Dark Mild -->
<g id="edge22" class="edge"><title>Pale Mild&#45;&gt;Dark Mild</title>
<path fill="none" stroke="black" d="M449,-592.327C449,-584.264 449,-574.648 449,-565.711"/>
<polygon fill="black" stroke="black" points="452.5,-565.667 449,-555.667 445.5,-565.667 452.5,-565.667"/>
</g>
<!-- Bitter -->
<g id="node25" class="node"><title>Bitter</title>
<ellipse fill="none" stroke="black" cx="317" cy="-463" rx="39.0967" ry="18.3848"/>
<text text-anchor="middle" x="317" y="-459.4" font-family="Times Roman,serif" font-size="14.00">Bitter</text>
</g>
<!-- Dark Mild&#45;&gt;Bitter -->
<g id="edge24" class="edge"><title>Dark Mild&#45;&gt;Bitter</title>
<path fill="none" stroke="black" d="M420.032,-520.76C399.712,-509.369 372.468,-494.096 351.099,-482.116"/>
<polygon fill="black" stroke="black" points="352.772,-479.041 342.337,-477.204 349.349,-485.147 352.772,-479.041"/>
</g>
<!-- South English Brown Ale -->
<g id="node27" class="node"><title>South English Brown Ale</title>
<ellipse fill="none" stroke="black" cx="527" cy="-463" rx="132.936" ry="18.3848"/>
<text text-anchor="middle" x="527" y="-459.4" font-family="Times Roman,serif" font-size="14.00">South English Brown Ale</text>
</g>
<!-- Dark Mild&#45;&gt;South English Brown Ale -->
<g id="edge26" class="edge"><title>Dark Mild&#45;&gt;South English Brown Ale</title>
<path fill="none" stroke="black" d="M467.485,-519.463C477.2,-510.246 489.29,-498.776 500.03,-488.587"/>
<polygon fill="black" stroke="black" points="502.714,-490.866 507.559,-481.444 497.896,-485.787 502.714,-490.866"/>
</g>
<!-- Light Ale -->
<g id="node41" class="node"><title>Light Ale</title>
<ellipse fill="none" stroke="black" cx="179" cy="-389" rx="55.1543" ry="18.3848"/>
<text text-anchor="middle" x="179" y="-385.4" font-family="Times Roman,serif" font-size="14.00">Light Ale</text>
</g>
<!-- Bitter&#45;&gt;Light Ale -->
<g id="edge40" class="edge"><title>Bitter&#45;&gt;Light Ale</title>
<path fill="none" stroke="black" d="M291.043,-449.081C270.365,-437.993 241.1,-422.3 217.664,-409.733"/>
<polygon fill="black" stroke="black" points="219.14,-406.553 208.673,-404.912 215.832,-412.722 219.14,-406.553"/>
</g>
<!-- Best Bitter -->
<g id="node43" class="node"><title>Best Bitter</title>
<ellipse fill="none" stroke="black" cx="317" cy="-389" rx="65.0538" ry="18.3848"/>
<text text-anchor="middle" x="317" y="-385.4" font-family="Times Roman,serif" font-size="14.00">Best Bitter</text>
</g>
<!-- Bitter&#45;&gt;Best Bitter -->
<g id="edge42" class="edge"><title>Bitter&#45;&gt;Best Bitter</title>
<path fill="none" stroke="black" d="M317,-444.327C317,-436.264 317,-426.648 317,-417.711"/>
<polygon fill="black" stroke="black" points="320.5,-417.667 317,-407.667 313.5,-417.667 320.5,-417.667"/>
</g>
<!-- North English Brown Ale -->
<g id="node29" class="node"><title>North English Brown Ale</title>
<ellipse fill="none" stroke="black" cx="547" cy="-389" rx="132.229" ry="18.3848"/>
<text text-anchor="middle" x="547" y="-385.4" font-family="Times Roman,serif" font-size="14.00">North English Brown Ale</text>
</g>
<!-- South English Brown Ale&#45;&gt;North English Brown Ale -->
<g id="edge28" class="edge"><title>South English Brown Ale&#45;&gt;North English Brown Ale</title>
<path fill="none" stroke="black" d="M532.047,-444.327C534.25,-436.176 536.882,-426.438 539.319,-417.42"/>
<polygon fill="black" stroke="black" points="542.724,-418.234 541.955,-407.667 535.967,-416.408 542.724,-418.234"/>
</g>
<!-- Irish Red Ale -->
<g id="node31" class="node"><title>Irish Red Ale</title>
<ellipse fill="none" stroke="black" cx="740" cy="-315" rx="72.832" ry="18.3848"/>
<text text-anchor="middle" x="740" y="-311.4" font-family="Times Roman,serif" font-size="14.00">Irish Red Ale</text>
</g>
<!-- North English Brown Ale&#45;&gt;Irish Red Ale -->
<g id="edge30" class="edge"><title>North English Brown Ale&#45;&gt;Irish Red Ale</title>
<path fill="none" stroke="black" d="M592.738,-371.463C622.008,-360.24 659.989,-345.678 690.046,-334.153"/>
<polygon fill="black" stroke="black" points="691.422,-337.374 699.506,-330.526 688.916,-330.838 691.422,-337.374"/>
</g>
<!-- Old Ale -->
<g id="node35" class="node"><title>Old Ale</title>
<ellipse fill="none" stroke="black" cx="547" cy="-315" rx="46.1672" ry="18.3848"/>
<text text-anchor="middle" x="547" y="-311.4" font-family="Times Roman,serif" font-size="14.00">Old Ale</text>
</g>
<!-- North English Brown Ale&#45;&gt;Old Ale -->
<g id="edge34" class="edge"><title>North English Brown Ale&#45;&gt;Old Ale</title>
<path fill="none" stroke="black" d="M547,-370.327C547,-362.264 547,-352.648 547,-343.711"/>
<polygon fill="black" stroke="black" points="550.5,-343.667 547,-333.667 543.5,-343.667 550.5,-343.667"/>
</g>
<!-- Strong Scotch Ale -->
<g id="node33" class="node"><title>Strong Scotch Ale</title>
<ellipse fill="none" stroke="black" cx="782" cy="-241" rx="98.9949" ry="18.3848"/>
<text text-anchor="middle" x="782" y="-237.4" font-family="Times Roman,serif" font-size="14.00">Strong Scotch Ale</text>
</g>
<!-- Irish Red Ale&#45;&gt;Strong Scotch Ale -->
<g id="edge32" class="edge"><title>Irish Red Ale&#45;&gt;Strong Scotch Ale</title>
<path fill="none" stroke="black" d="M750.598,-296.327C755.41,-287.849 761.196,-277.654 766.484,-268.338"/>
<polygon fill="black" stroke="black" points="769.658,-269.836 771.551,-259.411 763.571,-266.38 769.658,-269.836"/>
</g>
<!-- Belgian Brown/Red -->
<g id="node37" class="node"><title>Belgian Brown/Red</title>
<ellipse fill="none" stroke="black" cx="561" cy="-241" rx="104.151" ry="18.3848"/>
<text text-anchor="middle" x="561" y="-237.4" font-family="Times Roman,serif" font-size="14.00">Belgian Brown/Red</text>
</g>
<!-- Old Ale&#45;&gt;Belgian Brown/Red -->
<g id="edge36" class="edge"><title>Old Ale&#45;&gt;Belgian Brown/Red</title>
<path fill="none" stroke="black" d="M550.533,-296.327C552.058,-288.264 553.877,-278.648 555.568,-269.711"/>
<polygon fill="black" stroke="black" points="559.048,-270.144 557.468,-259.667 552.17,-268.842 559.048,-270.144"/>
</g>
<!-- Pale/Dark Barley Wine -->
<g id="node39" class="node"><title>Pale/Dark Barley Wine</title>
<ellipse fill="none" stroke="black" cx="317" cy="-241" rx="121.83" ry="18.3848"/>
<text text-anchor="middle" x="317" y="-237.4" font-family="Times Roman,serif" font-size="14.00">Pale/Dark Barley Wine</text>
</g>
<!-- Old Ale&#45;&gt;Pale/Dark Barley Wine -->
<g id="edge38" class="edge"><title>Old Ale&#45;&gt;Pale/Dark Barley Wine</title>
<path fill="none" stroke="black" d="M511.062,-303.438C475.782,-292.086 421.258,-274.544 378.977,-260.94"/>
<polygon fill="black" stroke="black" points="379.926,-257.569 369.334,-257.838 377.782,-264.233 379.926,-257.569"/>
</g>
<!-- Strong Bitter -->
<g id="node45" class="node"><title>Strong Bitter</title>
<ellipse fill="none" stroke="black" cx="317" cy="-315" rx="75.1594" ry="18.3848"/>
<text text-anchor="middle" x="317" y="-311.4" font-family="Times Roman,serif" font-size="14.00">Strong Bitter</text>
</g>
<!-- Best Bitter&#45;&gt;Strong Bitter -->
<g id="edge44" class="edge"><title>Best Bitter&#45;&gt;Strong Bitter</title>
<path fill="none" stroke="black" d="M317,-370.327C317,-362.264 317,-352.648 317,-343.711"/>
<polygon fill="black" stroke="black" points="320.5,-343.667 317,-333.667 313.5,-343.667 320.5,-343.667"/>
</g>
<!-- Pale Ale -->
<g id="node48" class="node"><title>Pale Ale</title>
<ellipse fill="none" stroke="black" cx="136" cy="-315" rx="50.2046" ry="18.3848"/>
<text text-anchor="middle" x="136" y="-311.4" font-family="Times Roman,serif" font-size="14.00">Pale Ale</text>
</g>
<!-- Best Bitter&#45;&gt;Pale Ale -->
<g id="edge48" class="edge"><title>Best Bitter&#45;&gt;Pale Ale</title>
<path fill="none" stroke="black" d="M279.497,-373.667C250.345,-361.749 209.866,-345.199 179.33,-332.715"/>
<polygon fill="black" stroke="black" points="180.373,-329.36 169.793,-328.816 177.724,-335.84 180.373,-329.36"/>
</g>
<!-- Strong Bitter&#45;&gt;Pale/Dark Barley Wine -->
<g id="edge46" class="edge"><title>Strong Bitter&#45;&gt;Pale/Dark Barley Wine</title>
<path fill="none" stroke="black" d="M317,-296.327C317,-288.264 317,-278.648 317,-269.711"/>
<polygon fill="black" stroke="black" points="320.5,-269.667 317,-259.667 313.5,-269.667 320.5,-269.667"/>
</g>
<!-- India Pale Ale -->
<g id="node50" class="node"><title>India Pale Ale</title>
<ellipse fill="none" stroke="black" cx="99" cy="-241" rx="77.7817" ry="18.3848"/>
<text text-anchor="middle" x="99" y="-237.4" font-family="Times Roman,serif" font-size="14.00">India Pale Ale</text>
</g>
<!-- Pale Ale&#45;&gt;India Pale Ale -->
<g id="edge50" class="edge"><title>Pale Ale&#45;&gt;India Pale Ale</title>
<path fill="none" stroke="black" d="M126.854,-296.708C122.617,-288.233 117.491,-277.982 112.798,-268.596"/>
<polygon fill="black" stroke="black" points="115.901,-266.975 108.298,-259.596 109.64,-270.105 115.901,-266.975"/>
</g>
<!-- Belgian Ales -->
<g id="node52" class="node"><title>Belgian Ales</title>
<ellipse fill="none" stroke="black" cx="99" cy="-167" rx="70.9184" ry="18.3848"/>
<text text-anchor="middle" x="99" y="-163.4" font-family="Times Roman,serif" font-size="14.00">Belgian Ales</text>
</g>
<!-- India Pale Ale&#45;&gt;Belgian Ales -->
<g id="edge52" class="edge"><title>India Pale Ale&#45;&gt;Belgian Ales</title>
<path fill="none" stroke="black" d="M99,-222.327C99,-214.264 99,-204.648 99,-195.711"/>
<polygon fill="black" stroke="black" points="102.5,-195.667 99,-185.667 95.5001,-195.667 102.5,-195.667"/>
</g>
<!-- Altbier -->
<g id="node54" class="node"><title>Altbier</title>
<ellipse fill="none" stroke="black" cx="44" cy="-93" rx="43.8406" ry="18.3848"/>
<text text-anchor="middle" x="44" y="-89.4" font-family="Times Roman,serif" font-size="14.00">Altbier</text>
</g>
<!-- Belgian Ales&#45;&gt;Altbier -->
<g id="edge54" class="edge"><title>Belgian Ales&#45;&gt;Altbier</title>
<path fill="none" stroke="black" d="M85.4045,-148.708C78.7615,-139.77 70.6496,-128.856 63.372,-119.064"/>
<polygon fill="black" stroke="black" points="66.0237,-116.765 57.2493,-110.826 60.4055,-120.94 66.0237,-116.765"/>
</g>
<!-- Saisons -->
<g id="node56" class="node"><title>Saisons</title>
<ellipse fill="none" stroke="black" cx="154" cy="-93" rx="48.0833" ry="18.3848"/>
<text text-anchor="middle" x="154" y="-89.4" font-family="Times Roman,serif" font-size="14.00">Saisons</text>
</g>
<!-- Belgian Ales&#45;&gt;Saisons -->
<g id="edge56" class="edge"><title>Belgian Ales&#45;&gt;Saisons</title>
<path fill="none" stroke="black" d="M112.596,-148.708C119.238,-139.77 127.35,-128.856 134.628,-119.064"/>
<polygon fill="black" stroke="black" points="137.594,-120.94 140.751,-110.826 131.976,-116.765 137.594,-120.94"/>
</g>
<!-- Trappisten -->
<g id="node58" class="node"><title>Trappisten</title>
<ellipse fill="none" stroke="black" cx="154" cy="-19" rx="62.2254" ry="18.3848"/>
<text text-anchor="middle" x="154" y="-15.4" font-family="Times Roman,serif" font-size="14.00">Trappisten</text>
</g>
<!-- Saisons&#45;&gt;Trappisten -->
<g id="edge58" class="edge"><title>Saisons&#45;&gt;Trappisten</title>
<path fill="none" stroke="black" d="M154,-74.3267C154,-66.2639 154,-56.6477 154,-47.7115"/>
<polygon fill="black" stroke="black" points="157.5,-47.6673 154,-37.6674 150.5,-47.6674 157.5,-47.6673"/>
</g>
<!-- Cream Ale -->
<g id="node62" class="node"><title>Cream Ale</title>
<ellipse fill="none" stroke="black" cx="596" cy="-537" rx="62.2254" ry="18.3848"/>
<text text-anchor="middle" x="596" y="-533.4" font-family="Times Roman,serif" font-size="14.00">Cream Ale</text>
</g>
<!-- American Ale&#45;&gt;Cream Ale -->
<g id="edge62" class="edge"><title>American Ale&#45;&gt;Cream Ale</title>
<path fill="none" stroke="black" d="M596,-592.327C596,-584.264 596,-574.648 596,-565.711"/>
<polygon fill="black" stroke="black" points="599.5,-565.667 596,-555.667 592.5,-565.667 599.5,-565.667"/>
</g>
<!-- Belgian Witbier/White/Blanche -->
<g id="node70" class="node"><title>Belgian Witbier/White/Blanche</title>
<ellipse fill="none" stroke="black" cx="1279" cy="-537" rx="161.927" ry="18.3848"/>
<text text-anchor="middle" x="1279" y="-533.4" font-family="Times Roman,serif" font-size="14.00">Belgian Witbier/White/Blanche</text>
</g>
<!-- pure yeasts&#45;&gt;Belgian Witbier/White/Blanche -->
<g id="edge70" class="edge"><title>pure yeasts&#45;&gt;Belgian Witbier/White/Blanche</title>
<path fill="none" stroke="black" d="M1279,-592.327C1279,-584.264 1279,-574.648 1279,-565.711"/>
<polygon fill="black" stroke="black" points="1282.5,-565.667 1279,-555.667 1275.5,-565.667 1282.5,-565.667"/>
</g>
<!-- Berliner Weisse -->
<g id="node80" class="node"><title>Berliner Weisse</title>
<ellipse fill="none" stroke="black" cx="792" cy="-537" rx="87.1802" ry="18.3848"/>
<text text-anchor="middle" x="792" y="-533.4" font-family="Times Roman,serif" font-size="14.00">Berliner Weisse</text>
</g>
<!-- lactic fermentation&#45;&gt;Berliner Weisse -->
<g id="edge80" class="edge"><title>lactic fermentation&#45;&gt;Berliner Weisse</title>
<path fill="none" stroke="black" d="M792,-592.327C792,-584.264 792,-574.648 792,-565.711"/>
<polygon fill="black" stroke="black" points="795.5,-565.667 792,-555.667 788.5,-565.667 795.5,-565.667"/>
</g>
<!-- Lambic -->
<g id="node82" class="node"><title>Lambic</title>
<ellipse fill="none" stroke="black" cx="1045" cy="-537" rx="45.9619" ry="18.3848"/>
<text text-anchor="middle" x="1045" y="-533.4" font-family="Times Roman,serif" font-size="14.00">Lambic</text>
</g>
<!-- spontaneous fermentation&#45;&gt;Lambic -->
<g id="edge82" class="edge"><title>spontaneous fermentation&#45;&gt;Lambic</title>
<path fill="none" stroke="black" d="M1050.98,-592.327C1050.11,-584.264 1049.07,-574.648 1048.1,-565.711"/>
<polygon fill="black" stroke="black" points="1051.57,-565.233 1047.02,-555.667 1044.61,-565.986 1051.57,-565.233"/>
</g>
<!-- South German Weissbier/Weizen -->
<g id="node72" class="node"><title>South German Weissbier/Weizen</title>
<ellipse fill="none" stroke="black" cx="1279" cy="-463" rx="173.241" ry="18.3848"/>
<text text-anchor="middle" x="1279" y="-459.4" font-family="Times Roman,serif" font-size="14.00">South German Weissbier/Weizen</text>
</g>
<!-- Belgian Witbier/White/Blanche&#45;&gt;South German Weissbier/Weizen -->
<g id="edge72" class="edge"><title>Belgian Witbier/White/Blanche&#45;&gt;South German Weissbier/Weizen</title>
<path fill="none" stroke="black" d="M1279,-518.327C1279,-510.264 1279,-500.648 1279,-491.711"/>
<polygon fill="black" stroke="black" points="1282.5,-491.667 1279,-481.667 1275.5,-491.667 1282.5,-491.667"/>
</g>
<!-- Hefeweizen -->
<g id="node74" class="node"><title>Hefeweizen</title>
<ellipse fill="none" stroke="black" cx="1279" cy="-389" rx="68.7979" ry="18.3848"/>
<text text-anchor="middle" x="1279" y="-385.4" font-family="Times Roman,serif" font-size="14.00">Hefeweizen</text>
</g>
<!-- South German Weissbier/Weizen&#45;&gt;Hefeweizen -->
<g id="edge74" class="edge"><title>South German Weissbier/Weizen&#45;&gt;Hefeweizen</title>
<path fill="none" stroke="black" d="M1279,-444.327C1279,-436.264 1279,-426.648 1279,-417.711"/>
<polygon fill="black" stroke="black" points="1282.5,-417.667 1279,-407.667 1275.5,-417.667 1282.5,-417.667"/>
</g>
<!-- Dunkelweizen -->
<g id="node76" class="node"><title>Dunkelweizen</title>
<ellipse fill="none" stroke="black" cx="1279" cy="-315" rx="82.0244" ry="18.3848"/>
<text text-anchor="middle" x="1279" y="-311.4" font-family="Times Roman,serif" font-size="14.00">Dunkelweizen</text>
</g>
<!-- Hefeweizen&#45;&gt;Dunkelweizen -->
<g id="edge76" class="edge"><title>Hefeweizen&#45;&gt;Dunkelweizen</title>
<path fill="none" stroke="black" d="M1279,-370.327C1279,-362.264 1279,-352.648 1279,-343.711"/>
<polygon fill="black" stroke="black" points="1282.5,-343.667 1279,-333.667 1275.5,-343.667 1282.5,-343.667"/>
</g>
<!-- Weizenbock -->
<g id="node78" class="node"><title>Weizenbock</title>
<ellipse fill="none" stroke="black" cx="1279" cy="-241" rx="70.2092" ry="18.3848"/>
<text text-anchor="middle" x="1279" y="-237.4" font-family="Times Roman,serif" font-size="14.00">Weizenbock</text>
</g>
<!-- Dunkelweizen&#45;&gt;Weizenbock -->
<g id="edge78" class="edge"><title>Dunkelweizen&#45;&gt;Weizenbock</title>
<path fill="none" stroke="black" d="M1279,-296.327C1279,-288.264 1279,-278.648 1279,-269.711"/>
<polygon fill="black" stroke="black" points="1282.5,-269.667 1279,-259.667 1275.5,-269.667 1282.5,-269.667"/>
</g>
<!-- Gueuze -->
<g id="node84" class="node"><title>Gueuze</title>
<ellipse fill="none" stroke="black" cx="1038" cy="-463" rx="50.2046" ry="18.3848"/>
<text text-anchor="middle" x="1038" y="-459.4" font-family="Times Roman,serif" font-size="14.00">Gueuze</text>
</g>
<!-- Lambic&#45;&gt;Gueuze -->
<g id="edge84" class="edge"><title>Lambic&#45;&gt;Gueuze</title>
<path fill="none" stroke="black" d="M1043.23,-518.327C1042.47,-510.264 1041.56,-500.648 1040.72,-491.711"/>
<polygon fill="black" stroke="black" points="1044.19,-491.293 1039.77,-481.667 1037.22,-491.953 1044.19,-491.293"/>
</g>
<!-- Faro -->
<g id="node86" class="node"><title>Faro</title>
<ellipse fill="none" stroke="black" cx="1038" cy="-389" rx="32.0265" ry="18.3848"/>
<text text-anchor="middle" x="1038" y="-385.4" font-family="Times Roman,serif" font-size="14.00">Faro</text>
</g>
<!-- Gueuze&#45;&gt;Faro -->
<g id="edge86" class="edge"><title>Gueuze&#45;&gt;Faro</title>
<path fill="none" stroke="black" d="M1038,-444.327C1038,-436.264 1038,-426.648 1038,-417.711"/>
<polygon fill="black" stroke="black" points="1041.5,-417.667 1038,-407.667 1034.5,-417.667 1041.5,-417.667"/>
</g>
<!-- Kriek -->
<g id="node88" class="node"><title>Kriek</title>
<ellipse fill="none" stroke="black" cx="1038" cy="-315" rx="36.7696" ry="18.3848"/>
<text text-anchor="middle" x="1038" y="-311.4" font-family="Times Roman,serif" font-size="14.00">Kriek</text>
</g>
<!-- Faro&#45;&gt;Kriek -->
<g id="edge88" class="edge"><title>Faro&#45;&gt;Kriek</title>
<path fill="none" stroke="black" d="M1038,-370.327C1038,-362.264 1038,-352.648 1038,-343.711"/>
<polygon fill="black" stroke="black" points="1041.5,-343.667 1038,-333.667 1034.5,-343.667 1041.5,-343.667"/>
</g>
<!-- Framboise -->
<g id="node90" class="node"><title>Framboise</title>
<ellipse fill="none" stroke="black" cx="1038" cy="-241" rx="60.8112" ry="18.3848"/>
<text text-anchor="middle" x="1038" y="-237.4" font-family="Times Roman,serif" font-size="14.00">Framboise</text>
</g>
<!-- Kriek&#45;&gt;Framboise -->
<g id="edge90" class="edge"><title>Kriek&#45;&gt;Framboise</title>
<path fill="none" stroke="black" d="M1038,-296.327C1038,-288.264 1038,-278.648 1038,-269.711"/>
<polygon fill="black" stroke="black" points="1041.5,-269.667 1038,-259.667 1034.5,-269.667 1041.5,-269.667"/>
</g>
<!-- Other fruit beers -->
<g id="node92" class="node"><title>Other fruit beers</title>
<ellipse fill="none" stroke="black" cx="1038" cy="-167" rx="94.0452" ry="18.3848"/>
<text text-anchor="middle" x="1038" y="-163.4" font-family="Times Roman,serif" font-size="14.00">Other fruit beers</text>
</g>
<!-- Framboise&#45;&gt;Other fruit beers -->
<g id="edge92" class="edge"><title>Framboise&#45;&gt;Other fruit beers</title>
<path fill="none" stroke="black" d="M1038,-222.327C1038,-214.264 1038,-204.648 1038,-195.711"/>
<polygon fill="black" stroke="black" points="1041.5,-195.667 1038,-185.667 1034.5,-195.667 1041.5,-195.667"/>
</g>
<!-- Pilsner -->
<g id="node100" class="node"><title>Pilsner</title>
<ellipse fill="none" stroke="black" cx="2218" cy="-611" rx="44.0472" ry="18.3848"/>
<text text-anchor="middle" x="2218" y="-607.4" font-family="Times Roman,serif" font-size="14.00">Pilsner</text>
</g>
<!-- Lager&#45;&gt;Pilsner -->
<g id="edge100" class="edge"><title>Lager&#45;&gt;Pilsner</title>
<path fill="none" stroke="black" d="M2127.07,-670.025C2143.81,-659.16 2166.68,-644.312 2185.3,-632.226"/>
<polygon fill="black" stroke="black" points="2187.3,-635.099 2193.78,-626.719 2183.49,-629.228 2187.3,-635.099"/>
</g>
<!-- Märzen/Ocktoberfest -->
<g id="node108" class="node"><title>Märzen/Ocktoberfest</title>
<ellipse fill="none" stroke="black" cx="1661" cy="-611" rx="113.844" ry="18.3848"/>
<text text-anchor="middle" x="1661" y="-607.4" font-family="Times Roman,serif" font-size="14.00">Märzen/Ocktoberfest</text>
</g>
<!-- Vienna type&#45;&gt;Märzen/Ocktoberfest -->
<g id="edge108" class="edge"><title>Vienna type&#45;&gt;Märzen/Ocktoberfest</title>
<path fill="none" stroke="black" d="M1677.45,-666.327C1675.03,-658.176 1672.13,-648.438 1669.45,-639.42"/>
<polygon fill="black" stroke="black" points="1672.75,-638.255 1666.55,-629.667 1666.04,-640.25 1672.75,-638.255"/>
</g>
<!-- Pale bock -->
<g id="node110" class="node"><title>Pale bock</title>
<ellipse fill="none" stroke="black" cx="2023" cy="-611" rx="56.7776" ry="18.3848"/>
<text text-anchor="middle" x="2023" y="-607.4" font-family="Times Roman,serif" font-size="14.00">Pale bock</text>
</g>
<!-- Munich pale&#45;&gt;Pale bock -->
<g id="edge110" class="edge"><title>Munich pale&#45;&gt;Pale bock</title>
<path fill="none" stroke="black" d="M1898.89,-668.76C1923.16,-657.469 1955.61,-642.363 1981.25,-630.431"/>
<polygon fill="black" stroke="black" points="1982.77,-633.585 1990.36,-626.192 1979.81,-627.238 1982.77,-633.585"/>
</g>
<!-- Munich dark -->
<g id="node116" class="node"><title>Munich dark</title>
<ellipse fill="none" stroke="black" cx="1864" cy="-611" rx="70.9184" ry="18.3848"/>
<text text-anchor="middle" x="1864" y="-607.4" font-family="Times Roman,serif" font-size="14.00">Munich dark</text>
</g>
<!-- Munich pale&#45;&gt;Munich dark -->
<g id="edge116" class="edge"><title>Munich pale&#45;&gt;Munich dark</title>
<path fill="none" stroke="black" d="M1864,-666.327C1864,-658.264 1864,-648.648 1864,-639.711"/>
<polygon fill="black" stroke="black" points="1867.5,-639.667 1864,-629.667 1860.5,-639.667 1867.5,-639.667"/>
</g>
<!-- Dortmunder/Export -->
<g id="node102" class="node"><title>Dortmunder/Export</title>
<ellipse fill="none" stroke="black" cx="2294" cy="-537" rx="106.98" ry="18.3848"/>
<text text-anchor="middle" x="2294" y="-533.4" font-family="Times Roman,serif" font-size="14.00">Dortmunder/Export</text>
</g>
<!-- Pilsner&#45;&gt;Dortmunder/Export -->
<g id="edge102" class="edge"><title>Pilsner&#45;&gt;Dortmunder/Export</title>
<path fill="none" stroke="black" d="M2235.63,-593.837C2245.15,-584.561 2257.11,-572.922 2267.71,-562.597"/>
<polygon fill="black" stroke="black" points="2270.42,-564.847 2275.14,-555.363 2265.53,-559.832 2270.42,-564.847"/>
</g>
<!-- Strong Lagers -->
<g id="node104" class="node"><title>Strong Lagers</title>
<ellipse fill="none" stroke="black" cx="2294" cy="-463" rx="79.9031" ry="18.3848"/>
<text text-anchor="middle" x="2294" y="-459.4" font-family="Times Roman,serif" font-size="14.00">Strong Lagers</text>
</g>
<!-- Dortmunder/Export&#45;&gt;Strong Lagers -->
<g id="edge104" class="edge"><title>Dortmunder/Export&#45;&gt;Strong Lagers</title>
<path fill="none" stroke="black" d="M2294,-518.327C2294,-510.264 2294,-500.648 2294,-491.711"/>
<polygon fill="black" stroke="black" points="2297.5,-491.667 2294,-481.667 2290.5,-491.667 2297.5,-491.667"/>
</g>
<!-- American Malt Liquor -->
<g id="node106" class="node"><title>American Malt Liquor</title>
<ellipse fill="none" stroke="black" cx="2294" cy="-389" rx="115.966" ry="18.3848"/>
<text text-anchor="middle" x="2294" y="-385.4" font-family="Times Roman,serif" font-size="14.00">American Malt Liquor</text>
</g>
<!-- Strong Lagers&#45;&gt;American Malt Liquor -->
<g id="edge106" class="edge"><title>Strong Lagers&#45;&gt;American Malt Liquor</title>
<path fill="none" stroke="black" d="M2294,-444.327C2294,-436.264 2294,-426.648 2294,-417.711"/>
<polygon fill="black" stroke="black" points="2297.5,-417.667 2294,-407.667 2290.5,-417.667 2297.5,-417.667"/>
</g>
<!-- Dark/pale double bock -->
<g id="node112" class="node"><title>Dark/pale double bock</title>
<ellipse fill="none" stroke="black" cx="2049" cy="-537" rx="120.208" ry="18.3848"/>
<text text-anchor="middle" x="2049" y="-533.4" font-family="Times Roman,serif" font-size="14.00">Dark/pale double bock</text>
</g>
<!-- Pale bock&#45;&gt;Dark/pale double bock -->
<g id="edge112" class="edge"><title>Pale bock&#45;&gt;Dark/pale double bock</title>
<path fill="none" stroke="black" d="M2029.56,-592.327C2032.46,-584.089 2035.92,-574.229 2039.12,-565.13"/>
<polygon fill="black" stroke="black" points="2042.43,-566.262 2042.44,-555.667 2035.82,-563.942 2042.43,-566.262"/>
</g>
<!-- Dark bock -->
<g id="node114" class="node"><title>Dark bock</title>
<ellipse fill="none" stroke="black" cx="1905" cy="-463" rx="60.8112" ry="18.3848"/>
<text text-anchor="middle" x="1905" y="-459.4" font-family="Times Roman,serif" font-size="14.00">Dark bock</text>
</g>
<!-- Dark/pale double bock&#45;&gt;Dark bock -->
<g id="edge114" class="edge"><title>Dark/pale double bock&#45;&gt;Dark bock</title>
<path fill="none" stroke="black" d="M2014.51,-519.275C1993.69,-508.575 1967.06,-494.891 1945.27,-483.696"/>
<polygon fill="black" stroke="black" points="1946.76,-480.524 1936.26,-479.066 1943.56,-486.75 1946.76,-480.524"/>
</g>
<!-- Munich dark&#45;&gt;Dark bock -->
<g id="edge120" class="edge"><title>Munich dark&#45;&gt;Dark bock</title>
<path fill="none" stroke="black" d="M1824.3,-595.374C1807.45,-586.525 1789.53,-573.635 1780,-556 1771.97,-541.143 1770.77,-532.144 1780,-518 1794.06,-496.447 1818.67,-483.284 1842.36,-475.27"/>
<polygon fill="black" stroke="black" points="1843.56,-478.561 1852.06,-472.242 1841.48,-471.879 1843.56,-478.561"/>
</g>
<!-- Rauchbier -->
<g id="node118" class="node"><title>Rauchbier</title>
<ellipse fill="none" stroke="black" cx="1850" cy="-537" rx="60.8112" ry="18.3848"/>
<text text-anchor="middle" x="1850" y="-533.4" font-family="Times Roman,serif" font-size="14.00">Rauchbier</text>
</g>
<!-- Munich dark&#45;&gt;Rauchbier -->
<g id="edge118" class="edge"><title>Munich dark&#45;&gt;Rauchbier</title>
<path fill="none" stroke="black" d="M1860.47,-592.327C1858.94,-584.264 1857.12,-574.648 1855.43,-565.711"/>
<polygon fill="black" stroke="black" points="1858.83,-564.842 1853.53,-555.667 1851.95,-566.144 1858.83,-564.842"/>
</g>
</g>
</svg>
